<?xml version="1.0" standalone="no"?>
<!DOCTYPE svg PUBLIC "-//W3C//DTD SVG 20010904//EN"
 "http://www.w3.org/TR/2001/REC-SVG-20010904/DTD/svg10.dtd">
<svg version="1.0" xmlns="http://www.w3.org/2000/svg"
 width="474.000000pt" height="157.000000pt" viewBox="0 0 474.000000 157.000000"
 preserveAspectRatio="xMidYMid meet">
<metadata>
Created by potrace 1.16, written by Peter Selinger 2001-2019
</metadata>
<g transform="translate(0.000000,157.000000) scale(0.100000,-0.100000)"
fill="#000000" stroke="none">
<path d="M458 1461 c-23 -29 -24 -29 -143 -33 -130 -4 -161 -14 -183 -64 -9
-18 -12 -184 -12 -590 l0 -566 34 -34 34 -34 1446 0 c807 0 1446 -4 1446 -9 0
-4 -9 -20 -21 -35 l-20 -26 55 0 c51 0 57 2 82 35 22 29 33 35 65 35 45 0 47
-7 18 -44 l-20 -26 55 0 c51 0 57 2 82 35 22 29 33 35 65 35 22 0 39 -3 39 -6
0 -3 -9 -19 -21 -35 l-20 -29 54 0 c51 0 57 3 81 35 23 30 33 35 67 35 21 0
39 -3 39 -6 0 -3 -9 -18 -21 -32 l-21 -27 52 -3 c50 -3 54 -1 82 32 l29 36
378 0 c361 0 379 1 403 20 49 38 49 40 46 637 -3 545 -4 562 -23 583 -46 52
-11 50 -1110 50 l-1026 0 21 28 22 27 -53 3 c-48 3 -54 1 -77 -27 -19 -25 -31
-31 -63 -31 -41 0 -49 9 -24 30 26 22 16 30 -37 30 -48 0 -55 -3 -73 -30 -17
-25 -26 -30 -62 -30 -49 0 -52 5 -21 37 l21 23 -59 0 c-54 0 -61 -2 -79 -30
-17 -26 -26 -30 -63 -30 -45 0 -46 5 -14 43 14 16 11 17 -41 17 -51 0 -59 -3
-79 -30 -20 -27 -27 -30 -81 -30 l-58 0 21 30 21 30 -605 0 -605 0 -23 -29z
m-74 -96 l-26 -35 608 0 609 0 24 35 c23 33 26 35 83 35 l60 0 -26 -35 -27
-35 55 0 c51 0 57 2 82 35 23 31 32 35 71 35 l44 0 -27 -35 -26 -35 55 0 c51
0 57 2 81 35 23 30 33 35 67 35 21 0 39 -3 39 -6 0 -3 -9 -18 -21 -32 l-21
-27 53 -3 c51 -3 55 -1 82 32 24 30 35 36 68 36 21 0 39 -3 39 -6 0 -3 -9 -18
-21 -32 l-21 -27 52 -3 c50 -3 54 -1 82 33 l30 35 1050 -2 1050 -3 24 -28 24
-28 0 -560 0 -560 -24 -24 c-13 -13 -39 -26 -57 -30 -19 -3 -184 -4 -367 -3
l-334 3 21 27 c12 14 21 29 21 32 0 3 -22 6 -50 6 -44 0 -53 -4 -82 -36 -29
-31 -38 -35 -72 -32 l-38 3 21 27 c12 14 21 29 21 32 0 3 -25 6 -55 6 -30 0
-55 -3 -55 -8 0 -4 -11 -20 -25 -35 -19 -19 -36 -27 -60 -27 -40 0 -43 7 -14
44 l20 26 -55 0 c-51 0 -57 -2 -82 -35 -22 -29 -33 -35 -65 -35 -45 0 -47 7
-18 44 l20 26 -55 0 c-51 0 -57 -2 -82 -35 l-27 -35 -1454 2 -1455 3 -24 28
-24 28 0 564 0 563 31 26 c28 24 38 26 130 26 l100 0 -27 -35z"/>
<path d="M1634 1062 c-17 -11 -27 -35 -94 -226 -64 -180 -89 -224 -141 -251
-60 -32 -129 -8 -129 44 0 36 38 147 55 161 24 20 37 1 30 -40 -5 -32 -3 -40
14 -49 28 -16 38 -14 61 11 14 16 20 35 20 69 0 40 -4 51 -31 73 -48 41 -137
32 -179 -19 -7 -9 -29 -62 -49 -118 -33 -93 -39 -103 -76 -125 -70 -40 -173
-16 -163 38 3 12 16 14 63 12 72 -3 113 18 138 71 21 43 21 70 2 107 -40 77
-181 79 -230 3 -27 -41 -65 -163 -65 -209 0 -108 153 -158 286 -93 l44 21 34
-21 c45 -28 115 -37 170 -21 33 9 49 9 65 0 49 -26 56 -15 141 218 22 61 41
82 74 82 22 0 20 -25 -9 -110 -32 -93 -32 -131 -1 -167 22 -26 30 -28 104 -29
49 -2 87 2 97 9 8 7 36 68 61 137 24 68 52 132 61 142 16 18 63 25 63 10 0 -5
-13 -48 -30 -97 -16 -49 -30 -101 -30 -116 0 -72 96 -111 173 -71 36 20 38 20
74 1 21 -10 52 -19 71 -19 39 0 101 27 109 47 3 8 21 13 43 13 50 0 88 15 123
48 61 58 74 132 22 132 -17 0 -32 -12 -52 -42 -27 -40 -75 -70 -89 -55 -3 3 3
26 15 50 12 25 21 63 21 89 0 40 -5 50 -35 77 -29 25 -45 31 -81 31 -53 0
-109 -24 -129 -54 -8 -12 -30 -64 -49 -115 -36 -97 -67 -141 -98 -141 -26 0
-23 26 13 130 28 80 30 93 19 121 -7 17 -23 37 -34 44 -26 17 -182 17 -196 0
-5 -6 -28 -65 -51 -130 -41 -116 -72 -165 -103 -165 -27 0 -26 16 4 106 38
110 38 143 4 178 -20 19 -37 26 -65 26 -22 0 -39 4 -39 10 0 5 9 33 20 62 11
29 20 62 20 74 0 35 -37 56 -66 36z m774 -294 c3 -26 0 -31 -50 -69 -30 -22
-38 -65 -16 -87 16 -16 -7 -42 -39 -42 -35 0 -39 25 -13 104 36 113 46 128 83
124 26 -2 33 -8 35 -30z"/>
<path d="M3040 1051 c-49 -25 -80 -75 -80 -125 0 -46 17 -78 85 -161 46 -58
58 -103 35 -144 -33 -64 -160 -41 -160 28 0 66 -68 95 -98 41 -12 -20 -12 -33
-2 -70 30 -110 163 -161 276 -105 58 29 89 66 106 128 15 56 -5 115 -61 179
-76 88 -90 127 -51 148 28 15 52 6 78 -30 27 -36 56 -38 78 -5 15 23 15 27 -3
61 -34 69 -130 95 -203 55z"/>
<path d="M3396 1048 c-8 -13 -54 -133 -101 -267 -81 -231 -85 -245 -70 -267
20 -30 50 -31 69 -1 8 12 33 74 56 137 45 125 61 150 97 150 30 0 29 -9 -7
-108 -34 -94 -36 -112 -15 -151 25 -50 96 -64 158 -32 36 18 38 18 74 0 21
-10 52 -19 71 -19 39 0 101 27 109 47 7 17 87 18 81 1 -68 -192 -69 -202 -23
-214 37 -9 55 12 86 104 22 64 29 76 45 73 10 -2 57 -4 104 -5 75 -1 92 2 143
28 44 21 66 40 88 75 39 60 46 89 26 108 -22 23 -54 7 -77 -36 -18 -37 -72
-91 -90 -91 -4 0 7 41 26 91 38 103 40 118 19 159 -19 37 -47 52 -93 49 -20
-1 -50 3 -65 10 -44 17 -62 0 -96 -91 -44 -120 -62 -151 -93 -162 -39 -14 -43
-3 -19 47 12 25 21 63 21 89 0 40 -5 50 -35 77 -29 25 -45 31 -81 31 -57 0
-111 -25 -133 -61 -10 -16 -30 -65 -46 -111 -29 -86 -66 -138 -97 -138 -25 0
-23 23 13 120 35 97 33 137 -8 170 -16 12 -41 20 -64 20 l-38 0 25 73 c28 83
23 117 -21 117 -14 0 -30 -9 -39 -22z m432 -280 c3 -26 0 -31 -50 -69 -30 -22
-38 -65 -16 -87 16 -16 -7 -42 -39 -42 -35 0 -39 25 -13 104 36 113 46 128 83
124 26 -2 33 -8 35 -30z m345 19 c3 -7 -10 -55 -27 -107 -35 -101 -61 -129
-92 -99 -13 14 -11 26 17 105 17 49 36 95 41 102 14 16 54 16 61 -1z"/>
<path d="M559 1041 c-20 -16 -22 -23 -13 -38 8 -14 26 -19 73 -21 33 -2 61 -8
61 -13 0 -6 -31 -101 -70 -211 -39 -111 -70 -211 -70 -222 0 -44 53 -63 81
-30 8 9 50 118 94 243 l80 226 70 3 c51 2 73 7 83 19 16 22 15 28 -4 47 -13
13 -45 16 -189 16 -156 0 -175 -2 -196 -19z"/>
<path d="M4667 623 c-4 -3 -7 -99 -7 -213 0 -199 -1 -208 -23 -241 -44 -66
-59 -69 -375 -69 -223 0 -283 -3 -280 -12 6 -17 521 -23 578 -8 49 13 99 54
116 97 10 24 14 88 14 243 0 192 -4 223 -23 203z"/>
<path d="M60 365 c0 -182 5 -202 60 -248 17 -15 47 -31 68 -37 24 -6 286 -10
735 -10 609 0 697 2 697 15 0 13 -92 15 -719 17 -709 3 -720 3 -747 24 -65 48
-69 61 -72 240 -2 90 -8 164 -13 164 -5 0 -9 -72 -9 -165z"/>
</g>
</svg>
